<?xml version="1.0" ?><!-- Uploaded to: SVG Repo, www.svgrepo.com, Generator: SVG Repo Mixer Tools -->
<svg fill="#C28EFF" width="800px" height="800px" viewBox="0 0 64 64" xmlns="http://www.w3.org/2000/svg"><title/><path d="M47.5,52A13.52,13.52,0,0,1,34,38.5v-2a13.5,13.5,0,1,1,27,0c0,2.4,0,2.56,0,2.62A1,1,0,0,1,60,40H43A4.5,4.5,0,0,0,51,42.37a1,1,0,0,1,.77-.37h7.42a1,1,0,0,1,.93,1.36A13.57,13.57,0,0,1,47.5,52Zm0-27A11.51,11.51,0,0,0,36,36.5v2A11.5,11.5,0,0,0,57.6,44H52.19A6.5,6.5,0,0,1,41,39.5V39a1,1,0,0,1,1-1H59c0-.44,0-1,0-1.5A11.5,11.5,0,0,0,47.5,25Z"/><path d="M56,21H38a1,1,0,0,1-1-1V16a1,1,0,0,1,1-1H56a1,1,0,0,1,1,1v4A1,1,0,0,1,56,21ZM39,19H55V17H39Z"/><path d="M52.79,35H42.21a1,1,0,0,1-1-1.27,6.49,6.49,0,0,1,12.5,0,1,1,0,0,1-1,1.27Zm-9-2h7.47a4.49,4.49,0,0,0-7.47,0Z"/><path d="M19.5,28H12a1,1,0,0,1-1-1V18a1,1,0,0,1,1-1h7.5a5.5,5.5,0,0,1,0,11ZM13,26h6.5a3.5,3.5,0,0,0,0-7H13Z"/><path d="M20,46H12a1,1,0,0,1-1-1V35a1,1,0,0,1,1-1h8a6,6,0,0,1,0,12Zm-7-2h7a4,4,0,0,0,0-8H13Z"/><path d="M22,52H4a1,1,0,0,1-1-1V13a1,1,0,0,1,1-1H22a9,9,0,0,1,9,9v2a9,9,0,0,1-4.67,7.89A11,11,0,0,1,22,52ZM5,50H22a9,9,0,0,0,0-18,1,1,0,0,1,0-2,7,7,0,0,0,7-7V21a7,7,0,0,0-7-7H5Z"/></svg>