<!DOCTYPE svg PUBLIC "-//W3C//DTD SVG 1.1//EN" "http://www.w3.org/Graphics/SVG/1.1/DTD/svg11.dtd">
<!-- Uploaded to: SVG Repo, www.svgrepo.com, Transformed by: SVG Repo Mixer Tools -->
<svg height="800px" width="800px" version="1.1" id="_x32_" xmlns="http://www.w3.org/2000/svg" xmlns:xlink="http://www.w3.org/1999/xlink" viewBox="0 0 512 512" xml:space="preserve" fill="#000000">
<g id="SVGRepo_bgCarrier" stroke-width="0"/>
<g id="SVGRepo_tracerCarrier" stroke-linecap="round" stroke-linejoin="round"/>
<g id="SVGRepo_iconCarrier"> <style type="text/css"> .st0{fill:#d7d7d7;} </style> <g> <path class="st0" d="M435.244,391.19c32.805-41.18,52.518-93.432,52.503-150.118c0.015-66.486-27.029-126.93-70.608-170.464 C373.593,27.021,313.149-0.016,246.667,0C180.181-0.016,119.742,27.021,76.2,70.608C32.616,114.142,5.576,174.586,5.591,241.072 C5.576,307.55,32.616,367.994,76.2,411.536c43.542,43.587,103.982,70.624,170.468,70.608c50.948,0.016,98.312-15.91,137.281-42.94 L456.756,512l49.653-49.653L435.244,391.19z M378.508,372.916c-33.826,33.773-80.267,54.591-131.841,54.606 c-51.574-0.015-98.015-20.833-131.845-54.606c-33.784-33.834-54.595-80.271-54.61-131.844 c0.015-51.574,20.826-98.011,54.61-131.844c33.83-33.78,80.271-54.591,131.845-54.606c51.574,0.015,98.014,20.826,131.841,54.606 c33.791,33.833,54.602,80.271,54.617,131.844C433.11,292.646,412.299,339.082,378.508,372.916z"/> <path class="st0" d="M155.926,235.105l-5.696-0.792c-14.558-2.058-19.782-7.117-19.782-14.555c0-8.389,6.012-14.402,16.932-14.402 c9.018,0,17.088,2.691,25.794,8.39c0.789,0.473,1.582,0.313,2.214-0.48l7.597-11.704c0.633-0.953,0.473-1.585-0.32-2.218 c-8.542-6.484-21.359-10.76-34.809-10.76c-22.156,0-36.398,12.977-36.398,32.44c0,17.877,11.712,27.852,32.44,30.694l5.696,0.792 c14.875,2.058,19.622,7.125,19.622,14.875c0,9.022-7.437,15.507-20.255,15.507c-12.024,0-22.312-5.852-29.273-11.392 c-0.632-0.632-1.581-0.632-2.214,0.16l-9.811,11.392c-0.632,0.792-0.316,1.737,0.316,2.378 c8.386,7.909,23.733,14.234,39.561,14.234c26.739,0,40.509-14.234,40.509-33.384C188.049,247.762,176.652,237.956,155.926,235.105z "/> <path class="st0" d="M275.566,190.322h-67.408c-0.949,0-1.581,0.632-1.581,1.585v104.435c0,0.953,0.632,1.585,1.581,1.585h67.408 c0.953,0,1.585-0.632,1.585-1.585v-13.602c0-0.952-0.632-1.585-1.585-1.585h-49.368l-0.949-0.953V252.99l0.949-0.952h41.614 c0.953,0,1.586-0.633,1.586-1.586v-13.609c0-0.945-0.633-1.577-1.586-1.577h-41.614l-0.949-0.953v-26.266l0.949-0.945h49.368 c0.953,0,1.585-0.64,1.585-1.585v-13.61C277.151,190.954,276.519,190.322,275.566,190.322z"/> <path class="st0" d="M334.448,188.584c-18.514,0-32.439,8.863-37.975,25.954c-2.218,6.645-2.85,12.658-2.85,29.589 c0,16.932,0.632,22.944,2.85,29.589c5.536,17.092,19.462,25.947,37.975,25.947c18.677,0,32.591-8.855,38.139-25.947 c2.21-6.645,2.85-12.657,2.85-29.589c0-16.932-0.64-22.944-2.85-29.589C367.039,197.447,353.124,188.584,334.448,188.584z M354.542,268.81c-3.003,8.702-9.327,14.082-20.095,14.082c-10.6,0-16.932-5.38-19.938-14.082 c-1.265-3.955-1.898-9.495-1.898-24.682c0-15.355,0.633-20.734,1.898-24.69c3.007-8.702,9.339-14.082,19.938-14.082 c10.768,0,17.092,5.38,20.095,14.082c1.265,3.955,1.904,9.335,1.904,24.69C356.447,259.315,355.807,264.854,354.542,268.81z"/> </g> </g>
</svg>