<svg width="800" height="800" viewBox="0 0 800 800" fill="none" xmlns="http://www.w3.org/2000/svg">
<path d="M400 0C179.063 0 0 179.063 0 400C0 620.937 179.063 800 400 800C620.937 800 800 620.937 800 400C800 179.063 620.937 0 400 0ZM288.125 567.344H210.156V317.812H288.125V567.344ZM247.031 286.562H246.406C218.125 286.562 199.844 267.5 199.844 243.281C199.844 218.594 218.75 200 247.5 200C276.25 200 293.906 218.594 294.531 243.281C294.688 267.344 276.406 286.562 247.031 286.562ZM600 567.344H511.562V438.281C511.562 404.531 497.813 381.406 467.344 381.406C444.063 381.406 431.094 397.031 425.156 412.031C422.969 417.344 423.281 424.844 423.281 432.5V567.344H335.625C335.625 567.344 336.719 338.594 335.625 317.812H423.281V357.031C428.437 339.844 456.406 315.469 501.094 315.469C556.563 315.469 600 351.406 600 428.594V567.344Z" fill="#C28EFF"/>
</svg>
