<svg width="800" height="800" viewBox="0 0 800 800" fill="none" xmlns="http://www.w3.org/2000/svg">
<path d="M537.656 382.031C530 375.469 520.469 372.188 509.219 372.188C497.031 372.188 487.5 375.625 480.625 382.656C473.906 389.687 469.687 399.063 467.812 410.938H550.156C549.531 398.281 545.156 388.75 537.656 382.031Z" fill="#C28EFF"/>
<path d="M334.844 415.781C328.906 413.125 320.781 411.719 310.156 411.562H249.219V477.5H309.375C320.156 477.5 328.438 476.094 334.375 473.125C345.312 467.656 350.625 457.5 350.625 442.344C350.625 429.531 345.313 420.625 334.844 415.781Z" fill="#C28EFF"/>
<path d="M400 0C179.063 0 0 179.063 0 400C0 620.937 179.063 800 400 800C620.937 800 800 620.937 800 400C800 179.063 620.937 0 400 0ZM455.625 284.844H561.562V315.625H455.625V284.844ZM391.719 485.313C387.031 492.969 381.25 499.531 374.219 504.688C366.406 510.781 357.031 514.844 346.25 517.188C335.469 519.375 323.906 520.469 311.25 520.469H200V273.281H319.531C349.687 273.75 371.094 282.5 383.594 299.688C391.094 310.156 394.844 322.813 394.844 337.5C394.844 352.5 391.094 364.688 383.437 373.906C379.219 379.063 372.813 383.75 364.531 387.969C377.188 392.656 386.719 399.844 393.125 409.844C399.531 419.844 402.812 431.875 402.812 446.094C402.812 460.469 399.062 473.594 391.719 485.313ZM600 442.5H466.875C467.656 460.781 473.906 473.75 485.938 481.094C493.281 485.625 502.031 487.969 512.344 487.969C523.125 487.969 532.031 485.156 538.906 479.531C542.656 476.562 545.938 472.344 548.75 466.875H597.5C596.25 477.656 590.313 488.75 579.844 500C563.438 517.812 540.625 526.719 511.094 526.719C486.719 526.719 465.312 519.219 446.719 504.219C428.125 489.219 418.75 464.844 418.75 431.094C418.75 399.375 427.188 375.156 443.906 358.281C460.781 341.406 482.5 332.969 509.219 332.969C525.156 332.969 539.531 335.781 552.187 341.563C565 347.188 575.469 356.25 583.75 368.594C591.25 379.375 596.094 392.031 598.281 406.406C599.687 414.688 600.156 426.719 600 442.5Z" fill="#C28EFF"/>
<path d="M335.625 364.531C342.344 360.469 345.625 353.125 345.625 342.812C345.625 331.25 341.25 323.75 332.344 320C324.687 317.5 315 316.094 303.125 316.094H249.375V370.625H309.375C320.156 370.781 328.75 368.75 335.625 364.531Z" fill="#C28EFF"/>
</svg>
